<?xml version="1.0" standalone="no"?><!DOCTYPE svg PUBLIC "-//W3C//DTD SVG 1.1//EN" "http://www.w3.org/Graphics/SVG/1.1/DTD/svg11.dtd"><svg t="1761813795635" class="icon" viewBox="0 0 1024 1024" version="1.1" xmlns="http://www.w3.org/2000/svg" p-id="4675" xmlns:xlink="http://www.w3.org/1999/xlink" width="200" height="200"><path d="M560.1 286.1c0 61.7 50 111.6 111.6 111.6s111.6-50 111.6-111.6-50-111.6-111.6-111.6-111.6 50-111.6 111.6z" fill="#FFB74D" p-id="4676"></path><path d="M839.4 633.2s-46-218.1-167.4-218.1-167.4 218.1-167.4 218.1V753h334.7V633.2z" fill="#455A64" p-id="4677"></path><path d="M249.1 307c0 71.6 58.1 129.7 129.7 129.7S508.6 378.6 508.6 307s-58.1-129.7-129.7-129.7-129.8 58-129.8 129.7z" fill="#FFB74D" p-id="4678"></path><path d="M573.6 710.3s-53.5-253.4-194.5-253.4-194.5 253.4-194.5 253.4v139.2h388.9V710.3z" fill="#607D8B" p-id="4679"></path></svg>